<svg width="365" height="263" viewBox="0 0 365 263" fill="none" xmlns="http://www.w3.org/2000/svg">
<ellipse cx="138.501" cy="131.48" rx="138.501" ry="131.48" fill="#31035B"/>
<ellipse cx="145.889" cy="131.48" rx="131.103" ry="124.457" fill="#F5F6F7"/>
<path d="M138.433 23.0964V22.687C138.433 21.8784 137.777 21.2228 136.968 21.2228C136.601 21.2228 136.247 21.3609 135.977 21.6097L133.952 23.4731C133.548 23.8456 133.108 24.178 132.639 24.4657L128.065 27.2724C127.515 27.6102 126.998 28.0005 126.523 28.4379L125.854 29.0538C124.755 30.0655 123.443 30.8181 122.015 31.2562L119.511 32.0243C118.561 32.3159 117.572 32.4642 116.578 32.4642H114.914C112.993 32.4642 111.113 33.0175 109.498 34.058L101.794 39.0216L95.6875 43.7055L93.2454 45.5037C91.5262 46.7697 90.2573 48.5526 89.6244 50.5916L89.1374 52.1607C88.7649 53.3606 88.7948 54.6494 89.2227 55.8307L89.4568 56.4772C90.1422 58.3699 91.9397 59.6307 93.9527 59.6307H94.0632C94.4653 59.6307 94.8652 59.6907 95.2496 59.8086C96.7575 60.2712 97.8589 61.5682 98.0711 63.1311L98.5625 66.7492C98.6808 67.6202 98.6808 68.5032 98.5625 69.3741L98.0168 73.3926C97.8232 74.818 97.3243 76.1849 96.5543 77.3999L91.1217 85.9722C90.7739 86.5209 90.4804 87.1022 90.2454 87.7079L85.5101 99.9121C83.5953 104.416 80.5598 111.818 78.7631 116.897C77.5793 120.244 76.8906 124.523 76.2143 128.008C75.7546 130.376 75.3327 132.783 75.3327 133.636C75.3327 134.9 75.8153 138.03 76.17 140.104C76.2869 140.787 76.4822 141.454 76.7438 142.096L78.6646 146.81C79.1526 148.008 79.4036 149.289 79.4036 150.582V158.041C79.4036 159.844 79.0851 161.369 77.989 162.8C77.1513 163.894 75.9596 165.148 75.1559 166.267C74.6448 166.978 74.0797 167.749 73.5865 168.416C72.7293 169.575 72.1149 170.898 71.8499 172.315C71.572 173.802 71.2617 175.693 71.2617 176.728V177.025C71.2617 179.821 72.3726 182.563 73.9353 184.881C74.1787 185.243 74.4054 185.586 74.6022 185.889C75.0939 186.644 75.4527 187.474 75.6888 188.344L76.0329 189.611C76.2408 190.376 76.2408 191.183 76.0329 191.948L75.6223 193.46C75.444 194.117 74.9188 194.622 74.2558 194.774C72.8991 195.087 72.3639 196.732 73.2771 197.782L75.0818 199.859C75.2486 200.05 75.3934 200.259 75.5147 200.482L79.4036 207.641C79.9704 208.685 81.2275 208.578 82.2826 208.206C83.1054 207.916 83.738 207.278 84.2498 206.571C85.069 205.44 85.9979 204.213 87.3825 204.031C87.7729 203.979 88.1832 203.945 88.5696 203.923C89.2417 203.886 89.9133 203.962 90.5728 204.097L98.7407 205.768L102.23 206.41C103.289 206.605 104.31 206.97 105.253 207.491L108.918 209.515L111.793 211.632C113.185 212.657 114.007 214.283 114.007 216.011C114.007 217.263 113.575 218.476 112.785 219.446L112.359 219.968C111.443 221.093 110.213 221.92 108.826 222.346L106.281 223.127C105.33 223.418 104.342 223.567 103.348 223.567H97.723C96.9088 223.567 93.3128 222.318 91.6165 221.693L88.7035 220.352C88.0022 220.03 87.1757 220.16 86.6077 220.683C85.9624 221.277 85.8035 222.233 86.2222 223.004L87.0256 224.483C87.3662 225.11 87.8658 225.637 88.4741 226.01L91.9324 228.132C93.0674 228.829 94.3289 229.295 95.6477 229.479C97.8282 229.783 100.59 230.124 101.794 230.124C103.829 230.124 108.918 230.124 110.954 229.187L116.875 226.462C118.334 225.791 119.622 224.782 120.423 223.39C120.919 222.527 121.41 221.587 121.836 220.736C122.738 218.935 122.974 216.885 122.616 214.903L122.346 213.414C122.216 212.697 121.928 212.02 121.496 211.434C121.082 210.872 120.508 210.1 119.889 209.285C118.582 207.566 119.27 204.954 121.297 204.208C121.853 204.003 122.456 203.965 123.034 204.098L126.22 204.831L132.065 205.728C132.239 205.755 132.414 205.768 132.59 205.768C134.218 205.768 135.662 204.634 135.788 203.011C135.886 201.759 135.83 200.562 135.379 200.147C134.362 199.21 132.326 193.59 130.291 190.779C129.033 189.043 127.695 183.845 126.838 179.841C126.406 177.821 126.688 175.722 127.56 173.849L128.973 170.815C129.173 170.386 129.403 169.972 129.659 169.574C131.781 166.274 135.379 160.338 135.379 158.929C135.379 157.055 129.273 144.877 129.273 143.941C129.273 143.004 127.237 122.395 127.237 121.458C127.237 120.861 128.099 114.275 128.793 109.096C129.101 106.791 128.6 104.455 127.388 102.471C124.608 97.9217 121.131 92.0809 121.131 91.4811C121.131 90.5443 119.096 80.2398 119.096 78.3662C119.096 77.3883 119.673 75.8253 120.263 74.5102C120.759 73.4042 121.886 72.7456 123.098 72.7456C123.804 72.7456 124.491 72.5199 125.059 72.1015L125.896 71.4852C127.95 69.9724 128.924 67.3935 128.382 64.9002L127.797 62.2038C127.43 60.5171 127.506 58.7643 128.018 57.1159L128.475 55.6437C128.998 53.96 129.956 52.4444 131.253 51.2505L132.326 50.2629L136.397 45.579L138.416 43.7203C139.075 43.1138 139.45 42.2591 139.45 41.3635V40.6905C139.45 40.2239 139.255 39.7786 138.912 39.4626C138.604 39.179 138.199 39.0216 137.78 39.0216C136.614 39.0216 135.799 37.8639 136.196 36.7677L136.346 36.3521C136.38 36.2584 136.421 36.1673 136.469 36.0796L137.22 34.6968C138.016 33.2316 138.433 31.5908 138.433 29.9234V27.7803V23.0964Z" fill="#FCB700"/>
<path d="M130.288 206.705L135.698 208.365C136.161 208.507 136.635 208.615 137.114 208.689L142.358 209.493C142.453 209.508 142.549 209.515 142.645 209.515C143.689 209.515 144.536 210.362 144.536 211.407V212.503C144.536 213.001 144.661 213.492 144.898 213.929L146.392 216.679C147.178 218.126 148.309 219.356 149.685 220.261L154.084 223.153C154.503 223.429 154.942 223.672 155.397 223.882L164.047 227.862C164.608 228.121 165.193 228.327 165.792 228.477L174.887 230.76C175.683 230.96 176.501 231.061 177.322 231.061H187.961C188.861 231.061 189.756 230.94 190.623 230.7L197.163 228.895C198.695 228.471 200.104 227.689 201.274 226.613L203.479 224.583C204.865 223.307 205.863 221.665 206.357 219.847L208.304 212.676C208.536 211.822 208.654 210.943 208.654 210.058V200.679C208.654 199.195 207.841 197.825 206.541 197.107C204.823 196.158 202.664 196.57 201.424 198.091C200.834 198.815 200.512 199.721 200.512 200.655V205.768L199.698 211.761C199.563 212.756 199.278 213.725 198.854 214.636L198.232 215.973C197.087 218.431 194.993 220.32 192.429 221.204L189.884 222.083C188.835 222.445 187.732 222.63 186.622 222.63H178.781C177.671 222.63 176.568 222.445 175.518 222.083L168.962 219.82L163.366 217.244C161.814 216.53 160.82 214.978 160.82 213.27C160.82 211.11 162.396 209.273 164.531 208.946L166.926 208.578L174.737 207.141C176.293 206.854 177.758 206.203 179.013 205.24L182.187 202.806C182.866 202.285 183.476 201.679 184.001 201.002L186.982 197.16C187.85 196.042 188.471 194.752 188.803 193.376L190.055 188.189C190.241 187.421 190.334 186.633 190.334 185.843V180.475C190.334 180.046 190.12 178.631 189.889 177.225C189.534 175.076 188.393 173.187 186.7 171.816C185.293 170.677 183.778 169.341 183.21 168.297L183.21 168.297C182.192 166.423 180.157 162.676 180.157 161.74V156.119C180.157 155.182 179.139 149.562 179.139 148.625C179.139 147.688 177.104 142.067 177.104 141.131C177.104 140.476 175.55 137.866 174.479 136.176C174.196 135.731 173.871 135.315 173.531 134.912C172.462 133.645 171.035 131.758 170.062 130.448C169.332 129.466 168.406 128.646 167.335 128.054C165.144 126.844 163.614 124.713 163.169 122.251L163.073 121.722C162.929 120.925 162.682 120.15 162.341 119.416L160.397 115.24C160.002 114.394 159.491 113.606 158.879 112.901L155.731 109.28L152.299 104.541C151.874 103.955 151.515 103.325 151.226 102.661L150.453 100.882C149.907 99.6246 149.625 98.2679 149.625 96.8966V94.6888C149.625 93.8035 149.742 92.9221 149.974 92.0677L151.311 87.1479C151.543 86.2936 151.66 85.4122 151.66 84.5268V82.6617C151.66 82.2968 151.632 81.9325 151.576 81.572L150.877 77.069C150.742 76.1984 149.993 75.5562 149.112 75.5562C148.782 75.5562 148.458 75.6475 148.177 75.82L144.467 78.0965C143.181 78.8856 141.702 79.3033 140.193 79.3033C139.697 79.3033 139.202 79.2581 138.714 79.1682L136.018 78.6719C134.92 78.4697 133.795 78.453 132.691 78.6223L130.328 78.9848C128.962 79.1944 127.661 79.7112 126.524 80.4964L125.297 81.3433C124.57 81.8449 123.708 82.1136 122.826 82.1136C121.734 82.1136 120.682 81.7033 119.879 80.964L116.46 77.8166C116.189 77.5678 115.835 77.4297 115.468 77.4297C114.659 77.4297 114.004 78.0853 114.004 78.8939V83.1237C114.004 83.6961 114.09 84.2651 114.26 84.8117L116.039 90.5446L118.799 98.1651C118.994 98.7044 119.235 99.2256 119.522 99.7223C120.155 100.817 121.386 102.933 122.534 104.812C123.578 106.522 124.181 108.478 124.181 110.481V111.382C124.181 112.462 123.911 113.524 123.396 114.473C123.241 114.758 123.108 115.054 122.998 115.359L121.726 118.871C121.33 119.963 121.128 121.115 121.128 122.276V130.689C121.128 131.403 121.205 132.115 121.356 132.812L123.164 141.131L125.828 148.488C126.086 149.201 126.263 149.942 126.354 150.695L127.235 157.993V159.705C127.235 161.644 126.646 163.529 125.34 164.962C124.51 165.875 123.606 166.812 122.972 167.46C122.429 168.016 122.255 168.05 121.942 168.762C120.582 171.849 118.797 177.528 118.491 180.888C118.271 183.301 118.075 185.799 118.075 187.033V192.843C118.075 195.144 118.869 197.375 120.323 199.159L122.716 202.097C123.68 203.28 124.902 204.226 126.288 204.864L130.288 206.705Z" fill="#31035B"/>
<path d="M200.465 119.469C200.465 116.655 201.079 114.152 202.308 111.959C203.565 109.74 205.336 108.022 207.621 106.804C209.907 105.559 212.535 104.937 215.506 104.937C219.277 104.937 222.448 105.897 225.019 107.819C227.59 109.713 229.247 112.298 229.99 115.572H220.948C220.406 114.49 219.648 113.664 218.677 113.096C217.734 112.528 216.635 112.244 215.378 112.244C213.435 112.244 211.878 112.907 210.707 114.233C209.564 115.532 208.992 117.277 208.992 119.469C208.992 121.689 209.564 123.461 210.707 124.787C211.878 126.086 213.435 126.736 215.378 126.736C216.635 126.736 217.734 126.452 218.677 125.883C219.648 125.315 220.406 124.49 220.948 123.407H229.99C229.247 126.682 227.59 129.28 225.019 131.201C222.448 133.096 219.277 134.043 215.506 134.043C212.535 134.043 209.907 133.434 207.621 132.216C205.336 130.971 203.565 129.253 202.308 127.061C201.079 124.841 200.465 122.311 200.465 119.469Z" fill="#31035B"/>
<path d="M256.936 122.189C256.936 122.812 256.894 123.434 256.808 124.057H240.91C240.995 125.302 241.352 126.235 241.981 126.858C242.638 127.453 243.466 127.751 244.466 127.751C245.866 127.751 246.866 127.155 247.466 125.965H256.422C256.051 127.534 255.322 128.942 254.237 130.186C253.18 131.404 251.837 132.365 250.209 133.069C248.58 133.772 246.78 134.124 244.809 134.124C242.438 134.124 240.324 133.651 238.467 132.703C236.639 131.756 235.196 130.403 234.139 128.644C233.11 126.885 232.596 124.814 232.596 122.433C232.596 120.051 233.11 117.995 234.139 116.262C235.167 114.503 236.596 113.15 238.424 112.203C240.281 111.256 242.409 110.782 244.809 110.782C247.18 110.782 249.28 111.242 251.108 112.162C252.937 113.083 254.365 114.409 255.394 116.141C256.422 117.846 256.936 119.862 256.936 122.189ZM248.366 120.2C248.366 119.226 248.023 118.468 247.337 117.927C246.652 117.359 245.795 117.074 244.766 117.074C243.738 117.074 242.895 117.345 242.238 117.886C241.581 118.4 241.152 119.172 240.952 120.2H248.366Z" fill="#31035B"/>
<path d="M276.1 110.863C278.872 110.863 281.071 111.743 282.7 113.502C284.328 115.234 285.142 117.589 285.142 120.566V133.84H276.743V121.621C276.743 120.322 276.386 119.307 275.672 118.576C274.958 117.819 274.001 117.44 272.801 117.44C271.544 117.44 270.558 117.819 269.844 118.576C269.13 119.307 268.773 120.322 268.773 121.621V133.84H260.374V111.066H268.773V114.314C269.515 113.286 270.515 112.46 271.772 111.838C273.029 111.188 274.472 110.863 276.1 110.863Z" fill="#31035B"/>
<path d="M303.935 127.061V133.84H300.293C294.151 133.84 291.079 130.958 291.079 125.193V117.683H288.123V111.066H291.079V105.545H299.521V111.066H303.892V117.683H299.521V125.315C299.521 125.938 299.664 126.384 299.95 126.655C300.264 126.925 300.778 127.061 301.493 127.061H303.935Z" fill="#31035B"/>
<path d="M316.187 115.085C317.129 113.786 318.272 112.758 319.615 112C320.958 111.242 322.4 110.863 323.943 110.863V119.348H321.586C319.758 119.348 318.401 119.686 317.515 120.363C316.629 121.039 316.187 122.216 316.187 123.894V133.84H307.788V111.066H316.187V115.085Z" fill="#31035B"/>
<path d="M325.583 122.433C325.583 120.078 326.025 118.022 326.911 116.262C327.825 114.503 329.054 113.15 330.596 112.203C332.168 111.256 333.91 110.782 335.824 110.782C337.481 110.782 338.91 111.093 340.11 111.716C341.31 112.338 342.238 113.177 342.895 114.233V111.066H351.294V133.84H342.895V130.674C342.238 131.729 341.295 132.568 340.067 133.19C338.867 133.813 337.453 134.124 335.824 134.124C333.91 134.124 332.168 133.651 330.596 132.703C329.054 131.756 327.825 130.403 326.911 128.644C326.025 126.858 325.583 124.787 325.583 122.433ZM342.895 122.433C342.895 120.971 342.467 119.821 341.61 118.982C340.781 118.143 339.753 117.724 338.524 117.724C337.267 117.724 336.224 118.143 335.396 118.982C334.567 119.794 334.153 120.944 334.153 122.433C334.153 123.894 334.567 125.058 335.396 125.924C336.224 126.763 337.267 127.182 338.524 127.182C339.753 127.182 340.781 126.763 341.61 125.924C342.467 125.085 342.895 123.921 342.895 122.433Z" fill="#31035B"/>
<path d="M364.479 103.8V133.84H356.08V103.8H364.479Z" fill="#31035B"/>
<path d="M223.264 147.29C223.264 148.661 222.925 149.915 222.247 151.05C221.591 152.164 220.584 153.064 219.227 153.75C217.893 154.414 216.253 154.746 214.308 154.746H211.018V162.395H204.368V139.738H214.308C216.231 139.738 217.859 140.059 219.193 140.702C220.55 141.345 221.568 142.234 222.247 143.369C222.925 144.505 223.264 145.812 223.264 147.29ZM213.664 149.733C215.541 149.733 216.479 148.919 216.479 147.29C216.479 145.641 215.541 144.816 213.664 144.816H211.018V149.733H213.664Z" fill="#31035B"/>
<path d="M244.119 153.171C244.119 153.664 244.086 154.157 244.018 154.65H231.432C231.499 155.635 231.782 156.374 232.28 156.867C232.8 157.339 233.456 157.574 234.247 157.574C235.356 157.574 236.147 157.103 236.622 156.16H243.712C243.418 157.403 242.842 158.517 241.982 159.502C241.145 160.467 240.082 161.227 238.793 161.784C237.504 162.341 236.079 162.62 234.519 162.62C232.642 162.62 230.968 162.245 229.498 161.495C228.05 160.745 226.908 159.674 226.071 158.281C225.257 156.889 224.85 155.25 224.85 153.364C224.85 151.479 225.257 149.851 226.071 148.479C226.886 147.087 228.016 146.015 229.464 145.266C230.934 144.516 232.619 144.141 234.519 144.141C236.396 144.141 238.058 144.505 239.506 145.233C240.953 145.962 242.084 147.012 242.898 148.383C243.712 149.733 244.119 151.329 244.119 153.171ZM237.334 151.597C237.334 150.825 237.063 150.225 236.52 149.797C235.977 149.347 235.299 149.122 234.485 149.122C233.671 149.122 233.003 149.336 232.483 149.765C231.963 150.172 231.624 150.783 231.465 151.597H237.334Z" fill="#31035B"/>
<path d="M258.07 157.028V162.395H255.186C250.324 162.395 247.892 160.113 247.892 155.55V149.604H245.551V144.366H247.892V139.995H254.575V144.366H258.036V149.604H254.575V155.646C254.575 156.139 254.689 156.492 254.915 156.707C255.163 156.921 255.571 157.028 256.136 157.028H258.07Z" fill="#31035B"/>
</svg>
